{"title":"60 Minutes AU - 25-9-2016","uid":15897753,"size":436090399,"categoryP":"video","categoryS":"tv_shows","magnet":"?xt=urn:btih:bd08951668348aa4cb44d9cd6738a0e409ef30cd&amp;dn=60+Minutes+AU+-+25-9-2016&amp;tr=udp%3A%2F%2Ftracker.leechers-paradise.org%3A6969&amp;tr=udp%3A%2F%2Fzer0day.ch%3A1337&amp;tr=udp%3A%2F%2Fopen.demonii.com%3A1337&amp;tr=udp%3A%2F%2Ftracker.coppersurfer.tk%3A6969&amp;tr=udp%3A%2F%2Fexodus.desync.com%3A6969","seeders":5,"leechers":2,"uploader":"Bullrout","files":1,"time":1474977173,"description":"60 Minutes AU - 25-9-2016\r\n\r\nWhat really happened to Phoebe Handsjuk, who was found dead at the bottom of a garbage chute? Olivia Newton-John's revealing interview about her difficult private struggles and Tom Hanks shows us why he really is Hollywood's Mr Nice Guy.\r\n\r\nComplete name : 60 Minutes AU - 25-9-2016.mp4\r\nFormat : MPEG-4\r\nFormat profile : Base Media / Version 2\r\nCodec ID : mp42 (mp42/isom/avc1)\r\nFile size : 416 MiB\r\nDuration : 52 min 38 s\r\nOverall bit rate mode : Variable\r\nOverall bit rate : 1 104 kb/s\r\n\r\nVideo\r\nID : 2\r\nFormat : AVC\r\nFormat/Info : Advanced Video Codec\r\nFormat profile :   \r\nFormat settings, CABAC : Yes\r\nFormat settings, ReFrames : 3 frames\r\nCodec ID : avc1\r\nCodec ID/Info : Advanced Video Coding\r\nDuration : 52 min 38 s\r\nBit rate mode : Variable\r\nBit rate : 973 kb/s\r\nMaximum bit rate : 1 000 kb/s\r\nWidth : 720 pixels\r\nHeight : 404 pixels\r\nDisplay aspect ratio : 16:9\r\nOriginal display aspect ratio : 16:9\r\nFrame rate mode : Constant\r\nFrame rate : 25.000 FPS\r\nStandard : PAL\r\nColor space : YUV\r\nChroma subsampling : 4:2:0\r\nBit depth : 8 bits\r\nScan type : Progressive\r\nBits/(Pixel*Frame) : 0.134\r\nStream size : 366 MiB (88%)\r\nWriting library : x264 core 112\r\nColor range : Limited\r\nColor primaries : BT.601 PAL\r\nTransfer characteristics : BT.470 System B, BT.470 System G\r\nMatrix coefficients : BT.601\r\n\r\nAudio\r\nID : 1\r\nFormat : AAC\r\nFormat/Info : Advanced Audio Codec\r\nFormat profile : LC\r\nCodec ID : 40\r\nDuration : 52 min 38 s\r\nBit rate mode : Variable\r\nBit rate : 128 kb/s\r\nMaximum bit rate : 576 kb/s\r\nChannel(s) : 2 channels\r\nChannel positions : Front: L R\r\nSampling rate : 48.0 kHz\r\nFrame rate : 46.875 FPS (1024 spf)\r\nCompression mode : Lossy\r\nStream size : 48.2 MiB (12%)","torrent":{"xt":"urn:btih:bd08951668348aa4cb44d9cd6738a0e409ef30cd","amp;dn":"60+Minutes+AU+-+25-9-2016","amp;tr":["udp%3A%2F%2Ftracker.leechers-paradise.org%3A6969","udp%3A%2F%2Fzer0day.ch%3A1337","udp%3A%2F%2Fopen.demonii.com%3A1337","udp%3A%2F%2Ftracker.coppersurfer.tk%3A6969","udp%3A%2F%2Fexodus.desync.com%3A6969"],"infoHash":"bd08951668348aa4cb44d9cd6738a0e409ef30cd","infoHashBuffer":{"type":"Buffer","data":[189,8,149,22,104,52,138,164,203,68,217,205,103,56,160,228,9,239,48,205]},"announce":[],"urlList":[]}}